<?xml version="1.0" encoding="UTF-8"?>
<svg version="1.1" xmlns="http://www.w3.org/2000/svg" width="837" height="345">
<path d="M0 0 C276.21 0 552.42 0 837 0 C837 113.85 837 227.7 837 345 C560.79 345 284.58 345 0 345 C0 231.15 0 117.3 0 0 Z " fill="#FEFEFE" transform="translate(0,0)"/>
<path d="M0 0 C0.02578125 1.19496094 0.0515625 2.38992187 0.078125 3.62109375 C0.32468744 15.87037857 0.32468744 15.87037857 5 27 C5.5775 27.928125 6.155 28.85625 6.75 29.8125 C11.64231494 34.56891731 16.16981886 36.24350827 23 36.3125 C25.00108225 36.23175015 27.00145533 36.1291119 29 36 C29.78246094 35.979375 30.56492187 35.95875 31.37109375 35.9375 C35.12798206 35.71024022 36.91882394 35.06529378 39.875 32.6875 C41.622945 30.47686368 42.94279779 28.59495087 44 26 C44.66 26 45.32 26 46 26 C46.33 19.07 46.66 12.14 47 5 C47.66 5 48.32 5 49 5 C49.33 3.35 49.66 1.7 50 0 C57.81452752 -0.02526563 65.62904458 -0.04283105 73.44360352 -0.05493164 C76.10441481 -0.05997383 78.76522332 -0.06680736 81.42602539 -0.07543945 C85.24105516 -0.08751009 89.05604844 -0.09322929 92.87109375 -0.09765625 C94.66793861 -0.10539818 94.66793861 -0.10539818 96.50108337 -0.11329651 C98.15268211 -0.11340981 98.15268211 -0.11340981 99.83764648 -0.11352539 C100.81249496 -0.115746 101.78734344 -0.11796661 102.79173279 -0.12025452 C105 0 105 0 106 1 C106.16056432 3.33115605 106.27772277 5.66534658 106.375 8 C106.92612143 17.45273663 108.35198829 24.36999613 115.08203125 31.3359375 C122.60784712 37.8654641 132.66970984 36.28627027 142 36 C142 35.34 142 34.68 142 34 C143.3303125 33.505 143.3303125 33.505 144.6875 33 C148.99142972 30.40140092 150.98608839 27.57978769 153 23 C153.61944867 19.54970829 153.65598717 16.18646842 153.625 12.6875 C153.625 10.92052494 153.63747446 9.15349376 153.6640625 7.38671875 C153.65560303 6.22982544 153.65560303 6.22982544 153.64697266 5.04956055 C154.09898434 2.4253295 154.86792316 1.56167151 157 0 C163.29891975 -0.65161239 168.18276023 0.6485674 174 3 C175.02287109 3.38285156 175.02287109 3.38285156 176.06640625 3.7734375 C184.45462271 7.35197212 189.84692091 14.51890137 193.30859375 22.76171875 C195.04971441 28.39822799 195.13971174 33.9230214 195.11352539 39.75927734 C195.11367142 40.61846771 195.11381744 41.47765808 195.1139679 42.36288452 C195.11327429 45.18726169 195.1055078 48.01157193 195.09765625 50.8359375 C195.09579011 52.80034346 195.09436713 54.7647499 195.09336853 56.72915649 C195.08955879 61.88793228 195.07974171 67.04667971 195.06866455 72.20544434 C195.05841721 77.47419857 195.0538638 82.74295741 195.04882812 88.01171875 C195.03811803 98.34116027 195.02053376 108.67057333 195 119 C188.73 118.67 182.46 118.34 176 118 C175.67 97.21 175.34 76.42 175 55 C77.485 54.505 77.485 54.505 -22 54 C-21.9175 76.06875 -21.835 98.1375 -21.75 120.875 C-21.73420898 127.83190918 -21.71841797 134.78881836 -21.70214844 141.95654297 C-21.66891046 148.21670567 -21.66891046 148.21670567 -21.63043213 154.47683716 C-21.61349211 157.25561947 -21.60756549 160.03418606 -21.60845947 162.8130188 C-21.60923532 166.36736566 -21.59077666 169.92114321 -21.55891085 173.47534204 C-21.54648557 175.38206978 -21.55332662 177.288894 -21.56112289 179.19564629 C-21.44956489 188.39933349 -20.03566418 196.07998137 -13.5625 202.9375 C-10.89201299 205.36314492 -8.24169847 207.37915076 -5 209 C-3.95355568 209.52383774 -3.95355568 209.52383774 -2.88597107 210.05825806 C0.93568792 211.30533105 4.57542379 211.27597966 8.55053711 211.25537109 C9.82464699 211.26080177 9.82464699 211.26080177 11.12449646 211.26634216 C12.96382004 211.27322095 14.80316397 211.27574445 16.64249992 211.27439499 C19.55571628 211.27342808 22.46856538 211.28639109 25.38172913 211.30337524 C33.66257908 211.34960093 41.94339065 211.37425637 50.22436523 211.38085938 C55.29421938 211.38587629 60.36368876 211.41013332 65.43341255 211.44618607 C67.36265311 211.45597782 69.29194664 211.45831942 71.22120476 211.45301437 C73.92124395 211.44593714 76.6201374 211.46323859 79.32006836 211.48583984 C80.51022552 211.47358116 80.51022552 211.47358116 81.72442627 211.46107483 C86.91221443 211.53819531 89.87824229 212.57687787 94 216 C95.16983345 218.3396669 95.1661241 219.83391527 95.1875 222.4375 C95.20167969 223.21996094 95.21585938 224.00242187 95.23046875 224.80859375 C95 227 95 227 93 230 C102.18299089 234.77515526 110.57852493 237.35909593 120.9375 237.1875 C122.08702148 237.1865332 122.08702148 237.1865332 123.25976562 237.18554688 C126.93082818 237.4931888 126.93082818 237.4931888 130 236 C132.01594582 235.76572222 134.038474 235.58663876 136.0625 235.4375 C137.16722656 235.35371094 138.27195313 235.26992188 139.41015625 235.18359375 C140.26480469 235.12300781 141.11945313 235.06242188 142 235 C142 234.01 142 233.02 142 232 C142.99 231.649375 143.98 231.29875 145 230.9375 C149.99953357 228.81524902 155.52938816 224.94122369 158 220 C158.66 220 159.32 220 160 220 C160.99 217.03 160.99 217.03 162 214 C162.66 214 163.32 214 164 214 C164 212.68 164 211.36 164 210 C164.66 210 165.32 210 166 210 C166 208.68 166 207.36 166 206 C166.66 206 167.32 206 168 206 C168 204.68 168 203.36 168 202 C168.66 202 169.32 202 170 202 C170 200.02 170 198.04 170 196 C170.66 196 171.32 196 172 196 C171.68822679 191.65528946 171.14227909 188.18096185 168.0390625 184.97265625 C166.87503906 184.02712891 166.87503906 184.02712891 165.6875 183.0625 C160.76746937 179.02331356 157.71872293 175.20088272 156 169 C155.62774425 164.29782217 155.69498608 159.70399238 156 155 C156.66 155 157.32 155 158 155 C158 153.35 158 151.7 158 150 C158.66 150 159.32 150 160 150 C160 148.68 160 147.36 160 146 C160.66 146 161.32 146 162 146 C162.0825 145.4225 162.165 144.845 162.25 144.25 C163.225982 141.32205399 164.63511223 139.94755463 167 138 C167.99 138 168.98 138 170 138 C170 137.34 170 136.68 170 136 C171.32 136 172.64 136 174 136 C174 135.34 174 134.68 174 134 C181.66931623 130.85361385 187.62637475 131.20616928 195.25 134.25 C201.61029903 136.97584244 205.81090917 140.06133985 209.25 146.125 C209.75015625 146.99382812 210.2503125 147.86265625 210.765625 148.7578125 C214.30604485 155.1888283 214.08068465 163.65873537 212.31640625 170.74609375 C208.75181263 179.28041125 203.53703647 184.2027368 195.26953125 188.15234375 C193 189 193 189 190 189 C189.938125 190.175625 189.87625 191.35125 189.8125 192.5625 C188.03735115 207.86716167 180.66992002 223.83587611 169 234 C168.21625 234.825 167.4325 235.65 166.625 236.5 C150.33688227 252.01249308 132.88092951 255.94052095 111 255.4140625 C103.60581489 255.04803652 97.6226899 253.415248 91 250 C90.10667969 249.55398438 89.21335938 249.10796875 88.29296875 248.6484375 C81.45359164 244.88730539 74.54026159 239.62823262 69.77220154 233.3948822 C67.09578087 231.28829812 64.88397933 231.62836511 61.51586914 231.63110352 C60.86171021 231.62733704 60.20755127 231.62357056 59.53356934 231.61968994 C58.11275222 231.61325601 56.69189207 231.61358893 55.2710743 231.61987495 C53.01151646 231.62900174 50.75278591 231.61873967 48.49327087 231.60325623 C42.06901368 231.56322977 35.64482016 231.56193533 29.22045898 231.56420898 C25.28754248 231.56426054 21.35506542 231.54485925 17.42226982 231.51487541 C15.21545766 231.50417441 13.00953181 231.5161126 10.80274963 231.52870178 C-4.19939558 231.49060094 -16.76980675 227.1436053 -27.75 216.75 C-40.72224688 203.13488071 -41.15704525 188.9353941 -41.12939453 171.03857422 C-41.13075213 169.55256101 -41.13253408 168.06654813 -41.13470459 166.58053589 C-41.13923544 162.57244578 -41.13750757 158.56438162 -41.1343255 154.5562911 C-41.13178027 150.3480024 -41.13414536 146.1397158 -41.13571167 141.931427 C-41.13752667 134.86883142 -41.13514423 127.80624633 -41.13037109 120.74365234 C-41.12492555 112.59226005 -41.12669596 104.44089276 -41.1321975 96.28950107 C-41.13674269 89.27266981 -41.13737242 82.25584605 -41.13475883 75.23901379 C-41.13320434 71.0559944 -41.13297964 66.87298674 -41.13629532 62.68996811 C-41.13919462 58.75828257 -41.13716062 54.82662914 -41.13140106 50.89494705 C-41.13008467 49.45667321 -41.13044843 48.01839664 -41.13266373 46.5801239 C-41.1423712 39.6346424 -41.09636181 32.86703795 -40 26 C-39.34 26 -38.68 26 -38 26 C-38 24.02 -38 22.04 -38 20 C-37.01 20 -36.02 20 -35 20 C-35 19.01 -35 18.02 -35 17 C-34.34 17 -33.68 17 -33 17 C-32.9175 16.4225 -32.835 15.845 -32.75 15.25 C-31.774018 12.32205399 -30.36488777 10.94755463 -28 9 C-27.01 9 -26.02 9 -25 9 C-24.75894531 8.22269531 -24.51789062 7.44539063 -24.26953125 6.64453125 C-22.37456416 2.69716904 -19.98878713 2.16190775 -16.01953125 0.71484375 C-10.70571176 -0.54314974 -5.42135741 -0.30590731 0 0 Z " fill="#509EF7" transform="translate(70,55)"/>
<path d="M0 0 C0.90399666 -0.00384115 1.80799332 -0.00768229 2.73938382 -0.01163983 C4.22330839 -0.01034011 4.22330839 -0.01034011 5.73721123 -0.00901413 C6.79121333 -0.01198525 7.84521543 -0.01495637 8.93115699 -0.01801753 C12.4746605 -0.026712 16.01813026 -0.02821343 19.5616436 -0.02970505 C22.09770086 -0.03433274 24.63375741 -0.03935733 27.16981316 -0.04475021 C34.0687883 -0.05788205 40.96775232 -0.06435761 47.86673784 -0.06876087 C52.17652859 -0.07152483 56.4863171 -0.07576252 60.79610634 -0.08026505 C72.73389164 -0.09245797 84.67167516 -0.10275657 96.60946655 -0.10614014 C97.37342176 -0.1063597 98.13737697 -0.10657927 98.92448234 -0.10680549 C100.07312914 -0.10713291 100.07312914 -0.10713291 101.24498093 -0.10746694 C102.79666146 -0.1079104 104.34834198 -0.10835696 105.90002251 -0.10880661 C106.66970662 -0.10902804 107.43939074 -0.10924947 108.23239861 -0.10947761 C120.69611198 -0.11342322 133.1597668 -0.13086988 145.62345757 -0.15416613 C158.42667532 -0.17790332 171.22986372 -0.1903431 184.03310382 -0.19150805 C191.21878808 -0.1924236 198.40439608 -0.19814517 205.59005928 -0.21632767 C212.3517432 -0.2333772 219.11325797 -0.23496358 225.87496567 -0.22618866 C228.35411084 -0.22541827 230.83326379 -0.22976115 233.31238937 -0.23964691 C236.7026221 -0.25237076 240.09234308 -0.24648668 243.48257256 -0.23606491 C244.45847127 -0.24412132 245.43436999 -0.25217772 246.43984139 -0.26047826 C256.69476299 -0.18699504 265.6053142 2.42419653 273.49084282 9.13142776 C280.78364839 16.96562065 283.10494092 24.00509419 282.83459282 34.62752151 C281.81207079 45.05027452 276.36313332 51.38735543 269.11584282 58.44392776 C262.01546266 63.00845787 254.6819187 63.57103504 246.42887688 63.53256607 C245.34751247 63.53936274 244.26614806 63.54615941 243.15201503 63.55316204 C239.54570166 63.57208051 235.93972947 63.5697006 232.33337212 63.56721878 C229.74070615 63.57619957 227.1480442 63.58640855 224.5553875 63.59775162 C218.25396844 63.62259917 211.95263359 63.63091283 205.65116962 63.63258875 C200.52609365 63.63401753 195.40104531 63.64019815 190.27597809 63.64969063 C175.72548033 63.67608963 161.17504876 63.68995183 146.62452688 63.68769921 C145.84121436 63.68757934 145.05790185 63.68745947 144.25085258 63.68733597 C143.46657691 63.68721333 142.68230123 63.68709068 141.87425963 63.68696433 C129.16639968 63.68574518 116.45880648 63.71445296 103.75102367 63.75675107 C90.68319842 63.79990229 77.61550312 63.82055839 64.54760486 63.81796974 C57.21876708 63.81697595 49.89020906 63.82512329 42.5614357 63.85750389 C35.66739306 63.88777018 28.77394922 63.88675241 21.87987709 63.86495399 C19.35479875 63.86182246 16.82968337 63.86886969 14.30466843 63.88703537 C-11.82240804 64.0627759 -11.82240804 64.0627759 -21.70014095 55.15575886 C-23.56703331 53.26016175 -25.03545282 51.34403683 -26.50915718 49.13142776 C-26.94099312 48.48818558 -27.37282906 47.84494339 -27.81775093 47.18220901 C-32.05999689 39.47570683 -31.65209079 29.56750572 -29.88415718 21.15877151 C-26.97069823 12.74355749 -21.05256285 7.21707228 -13.25915718 3.19392776 C-8.778461 1.08914214 -4.95800209 0.00792487 0 0 Z " fill="#FAFCFE" transform="translate(326.50915718078613,236.86857223510742)"/>
<path d="M0 0 C4.05664947 -0.0990914 8.1128277 -0.17157106 12.17041016 -0.21972656 C13.5497668 -0.23980642 14.92903869 -0.26707666 16.30810547 -0.30175781 C18.29356979 -0.35042817 20.27966254 -0.37086418 22.265625 -0.390625 C23.45961914 -0.41157227 24.65361328 -0.43251953 25.88378906 -0.45410156 C29 0 29 0 31.39648438 1.57617188 C33.59688656 4.90223657 33.45568286 7.20334542 33.390625 11.171875 C33.38496521 11.8542926 33.37930542 12.53671021 33.37347412 13.23980713 C33.35115636 15.41059762 33.30097508 17.57971206 33.25 19.75 C33.22992876 21.2252365 33.21167907 22.70049899 33.1953125 24.17578125 C33.1513088 27.78439501 33.08231583 31.39203381 33 35 C33.95366455 35.01981934 34.9073291 35.03963867 35.88989258 35.06005859 C39.42922299 35.13615014 42.96814417 35.22486161 46.50708008 35.31738281 C48.03857339 35.35565798 49.57015615 35.39051349 51.10180664 35.421875 C53.3038733 35.46755807 55.50532496 35.52554537 57.70703125 35.5859375 C58.39150833 35.59748871 59.07598541 35.60903992 59.78120422 35.62094116 C63.38460837 35.73273744 64.9159183 35.94394553 68 38 C69.69187722 43.07563165 69.30407658 48.4567183 69.35009766 53.76904297 C69.36665888 55.16960261 69.39395225 56.57007766 69.43212891 57.97021484 C69.48708507 59.99881395 69.50879305 62.02544297 69.5234375 64.0546875 C69.5531665 65.87202393 69.5531665 65.87202393 69.58349609 67.72607422 C68.81499715 72.03802852 67.53865435 73.46081517 64 76 C60.58666992 76.56762695 60.58666992 76.56762695 56.73046875 76.48828125 C56.04946609 76.48120651 55.36846344 76.47413177 54.66682434 76.46684265 C52.50590005 76.43900069 50.34763178 76.37629527 48.1875 76.3125 C46.71683448 76.28740332 45.24612807 76.26459253 43.77539062 76.24414062 C40.18274043 76.18921188 36.59162972 76.10301647 33 76 C33.01571045 76.94842773 33.0314209 77.89685547 33.04760742 78.87402344 C33.09880107 82.4001209 33.13638125 85.92582222 33.16479492 89.45214844 C33.17986151 90.9769515 33.20031876 92.50171136 33.22631836 94.02636719 C33.26279706 96.22081166 33.27974714 98.41468216 33.29296875 100.609375 C33.3086792 101.92905273 33.32438965 103.24873047 33.34057617 104.60839844 C32.98303595 108.1689352 32.55404831 109.55092281 30 112 C25.01566711 113.6614443 19.82313439 113.22509154 14.60327148 113.24023438 C12.57298966 113.2499498 10.5437167 113.28099209 8.51367188 113.3125 C7.23169922 113.31765625 5.94972656 113.3228125 4.62890625 113.328125 C3.45400635 113.3374707 2.27910645 113.34681641 1.06860352 113.35644531 C-2.39752228 112.95382429 -3.76961982 112.69583916 -6 110 C-6.42646001 107.29571712 -6.6048041 104.9787448 -6.609375 102.26953125 C-6.62591125 101.51911057 -6.64244751 100.76868988 -6.65948486 99.99552917 C-6.70803052 97.60110344 -6.72934885 95.20731298 -6.75 92.8125 C-6.77815443 91.18811897 -6.80808112 89.56376761 -6.83984375 87.93945312 C-6.91379039 83.95968773 -6.96332417 79.98027633 -7 76 C-7.95366455 76.01047363 -8.9073291 76.02094727 -9.88989258 76.03173828 C-13.42891688 76.06794501 -16.9679248 76.09090284 -20.50708008 76.10986328 C-22.03868361 76.11991935 -23.57026795 76.133566 -25.10180664 76.15087891 C-27.30359636 76.17514498 -29.50513219 76.18648688 -31.70703125 76.1953125 C-32.39150833 76.20563507 -33.07598541 76.21595764 -33.78120422 76.22659302 C-37.43061661 76.22745382 -38.87148502 76.08567666 -42 74 C-42.26686213 71.30459685 -42.34818073 68.84152536 -42.29296875 66.1484375 C-42.28872391 65.37440582 -42.28447906 64.60037415 -42.28010559 63.80288696 C-42.26328998 61.32657323 -42.22563395 58.85106842 -42.1875 56.375 C-42.17245682 54.69792841 -42.15876778 53.02084408 -42.14648438 51.34375 C-42.11337721 47.22885419 -42.06157637 43.11456431 -42 39 C-41.34 39 -40.68 39 -40 39 C-39.67 38.01 -39.34 37.02 -39 36 C-38.06615479 35.97494385 -37.13230957 35.9498877 -36.17016602 35.92407227 C-32.71674811 35.82913072 -29.2635104 35.72988742 -25.81030273 35.62768555 C-24.31360731 35.58428187 -22.81686061 35.54261087 -21.32006836 35.50268555 C-19.17285688 35.44511384 -17.02590479 35.38138284 -14.87890625 35.31640625 C-12.93866577 35.26141968 -12.93866577 35.26141968 -10.95922852 35.20532227 C-8.11444992 35.3332722 -8.11444992 35.3332722 -7 34 C-6.84126045 31.78312006 -6.74866163 29.56144702 -6.68359375 27.33984375 C-6.66281265 26.67537735 -6.64203156 26.01091095 -6.62062073 25.3263092 C-6.55506342 23.19681457 -6.49621215 21.06719332 -6.4375 18.9375 C-6.39432061 17.49673153 -6.35070651 16.05597601 -6.30664062 14.61523438 C-6.19937607 11.0769596 -6.09812629 7.53854131 -6 4 C-5.34 4 -4.68 4 -4 4 C-4 3.34 -4 2.68 -4 2 C-2.68 2 -1.36 2 0 2 C0 1.34 0 0.68 0 0 Z " fill="#4F9DF7" transform="translate(134,131)"/>
<path d="M0 0 C3.96 0 7.92 0 12 0 C22.62293889 20.15233996 22.62293889 20.15233996 27.6875 30.1875 C28.02587891 30.85136719 28.36425781 31.51523438 28.71289062 32.19921875 C31 36.76376685 31 36.76376685 31 39 C31.45375 38.505 31.9075 38.01 32.375 37.5 C34 36 34 36 36 36 C36 35.01 36 34.02 36 33 C36.66 33 37.32 33 38 33 C38 31.35 38 29.7 38 28 C38.66 28 39.32 28 40 28 C40 26.68 40 25.36 40 24 C40.99 24 41.98 24 43 24 C43.33 22.02 43.66 20.04 44 18 C44.66 18 45.32 18 46 18 C46 16.68 46 15.36 46 14 C46.66 14 47.32 14 48 14 C48 12.68 48 11.36 48 10 C48.66 10 49.32 10 50 10 C50 8.68 50 7.36 50 6 C50.66 6 51.32 6 52 6 C52 4.68 52 3.36 52 2 C53.32 2 54.64 2 56 2 C56 1.34 56 0.68 56 0 C59.3 0 62.6 0 66 0 C67.41414513 2.82829026 67.12726716 5.19885945 67.12939453 8.36157227 C67.13202301 9.33983475 67.13202301 9.33983475 67.13470459 10.33786011 C67.13911237 12.49740241 67.13618924 14.65686309 67.1328125 16.81640625 C67.13348577 18.31330888 67.13445598 19.8102114 67.13571167 21.30711365 C67.13718712 24.44523153 67.13503868 27.58332097 67.13037109 30.72143555 C67.12466897 34.7524291 67.12795682 38.78335615 67.13394356 42.81434727 C67.1375491 45.90517177 67.1364107 48.99598038 67.13381577 52.08680534 C67.13314673 53.57362819 67.1339741 55.06045245 67.13629532 56.54727364 C67.13882227 58.62082901 67.13498092 60.69427508 67.12939453 62.76782227 C67.12859894 63.94981705 67.12780334 65.13181183 67.12698364 66.34962463 C67 69 67 69 66 70 C63.98035801 70.07244053 61.95832876 70.08377188 59.9375 70.0625 C58.83277344 70.05347656 57.72804688 70.04445313 56.58984375 70.03515625 C55.73519531 70.02355469 54.88054688 70.01195312 54 70 C53.96241577 68.46460571 53.96241577 68.46460571 53.92407227 66.89819336 C53.82941206 63.07565258 53.72933805 59.2532689 53.62768555 55.4309082 C53.58455714 53.78120619 53.54286799 52.13146585 53.50268555 50.48168945 C53.44444353 48.10095711 53.38090903 45.72041373 53.31640625 43.33984375 C53.29969376 42.61039047 53.28298126 41.88093719 53.26576233 41.12937927 C53.2358445 40.07908287 53.2358445 40.07908287 53.20532227 39.00756836 C53.18200584 38.09822792 53.18200584 38.09822792 53.15821838 37.17051697 C52.93421635 34.09754774 52.43573654 31.05015581 52 28 C46.72 37.9 41.44 47.8 36 58 C33.36 58 30.72 58 28 58 C26.65673469 55.42141033 25.32525335 52.83782579 24 50.25 C23.6184375 49.52039063 23.236875 48.79078125 22.84375 48.0390625 C22.4828125 47.33007812 22.121875 46.62109375 21.75 45.890625 C21.41484375 45.24125977 21.0796875 44.59189453 20.734375 43.92285156 C20 42 20 42 20 38 C19.34 38 18.68 38 18 38 C16.4921875 35.8125 16.4921875 35.8125 14.875 33 C14.33617187 32.071875 13.79734375 31.14375 13.2421875 30.1875 C12.62730469 29.1046875 12.62730469 29.1046875 12 28 C11.97494385 29.2367749 11.9498877 30.4735498 11.92407227 31.74780273 C11.83017747 36.31936713 11.72991371 40.89077318 11.62768555 45.4621582 C11.58426856 47.44389146 11.54259863 49.42566378 11.50268555 51.4074707 C11.44514617 54.2496317 11.38140555 57.09159483 11.31640625 59.93359375 C11.29133751 61.27108925 11.29133751 61.27108925 11.26576233 62.63560486 C11.11387171 68.88612829 11.11387171 68.88612829 10 70 C8.16884117 70.09851171 6.33380067 70.12972629 4.5 70.125 C3.4996875 70.12757813 2.499375 70.13015625 1.46875 70.1328125 C-1 70 -1 70 -2 69 C-2.09413687 66.94443339 -2.11742998 64.88559819 -2.11352539 62.82788086 C-2.11367142 62.18399918 -2.11381744 61.54011749 -2.1139679 60.87672424 C-2.11326885 58.73939697 -2.10547691 56.60215587 -2.09765625 54.46484375 C-2.09579204 52.98653715 -2.09436815 51.50822993 -2.09336853 50.02992249 C-2.08954359 46.13201198 -2.07971352 42.23413851 -2.06866455 38.33624268 C-2.05844992 34.36153667 -2.0538708 30.38682471 -2.04882812 26.41210938 C-2.03809122 18.608056 -2.02101509 10.80403318 -2 3 C-1.34 3 -0.68 3 0 3 C0 2.01 0 1.02 0 0 Z " fill="#529EF7" transform="translate(560,139)"/>
<path d="M0 0 C1.15693359 0.01289063 2.31386719 0.02578125 3.50585938 0.0390625 C4.70404297 0.07257813 5.90222656 0.10609375 7.13671875 0.140625 C8.96299805 0.16769531 8.96299805 0.16769531 10.82617188 0.1953125 C13.82632297 0.24237369 16.82486764 0.3081119 19.82421875 0.390625 C19.82421875 1.050625 19.82421875 1.710625 19.82421875 2.390625 C21.30921875 2.1740625 21.30921875 2.1740625 22.82421875 1.953125 C27.38950694 1.94384596 29.76175488 4.33440751 33.02734375 7.2734375 C38.03083711 13.16885794 38.36050435 18.5078206 38.1640625 25.98046875 C37.47034144 32.94160077 34.92562131 36.6303844 29.66796875 41.11328125 C28.94802734 41.73082275 28.22808594 42.34836426 27.48632812 42.98461914 C26.93783203 43.44860107 26.38933594 43.91258301 25.82421875 44.390625 C27.44650868 47.49621528 29.07251681 50.59984375 30.69921875 53.703125 C31.15941406 54.58419922 31.61960937 55.46527344 32.09375 56.37304688 C32.53847656 57.22060547 32.98320312 58.06816406 33.44140625 58.94140625 C33.84987793 59.72169189 34.25834961 60.50197754 34.67919922 61.3059082 C35.89362086 63.58749886 35.89362086 63.58749886 37.82421875 66.390625 C37.82421875 67.710625 37.82421875 69.030625 37.82421875 70.390625 C26.44592971 71.59009324 26.44592971 71.59009324 23.12890625 69.13671875 C21.77898003 66.95134868 20.80826268 64.76705763 19.82421875 62.390625 C18.95811183 60.41320712 18.06595112 58.45654346 17.12817383 56.51196289 C16.47792139 55.16166031 15.86402958 53.79310849 15.29174805 52.40795898 C14.30184372 50.33509141 13.52872048 48.94143758 11.82421875 47.390625 C8.4765465 46.5054578 5.27667235 46.34052944 1.82421875 46.390625 C1.82945557 47.08212646 1.83469238 47.77362793 1.84008789 48.48608398 C1.86079375 51.60008852 1.87385838 54.71407861 1.88671875 57.828125 C1.89509766 58.91673828 1.90347656 60.00535156 1.91210938 61.12695312 C1.91533203 62.16142578 1.91855469 63.19589844 1.921875 64.26171875 C1.92711182 65.22005615 1.93234863 66.17839355 1.93774414 67.16577148 C1.82421875 69.390625 1.82421875 69.390625 0.82421875 70.390625 C-1.19542324 70.46306553 -3.21745249 70.47439688 -5.23828125 70.453125 C-6.34300781 70.44410156 -7.44773437 70.43507813 -8.5859375 70.42578125 C-9.44058594 70.41417969 -10.29523438 70.40257812 -11.17578125 70.390625 C-11.29165032 61.85446427 -11.38048283 53.31863224 -11.43484211 44.78187943 C-11.46093257 40.81784533 -11.49631888 36.85434937 -11.55297852 32.890625 C-11.60732051 29.0650784 -11.63720594 25.24004921 -11.65016747 21.41414642 C-11.65940366 19.95484012 -11.67744047 18.49556204 -11.70443153 17.03647614 C-11.74075552 14.99146941 -11.74572588 12.94859792 -11.7434082 10.90332031 C-11.75451126 9.73971985 -11.76561432 8.57611938 -11.77705383 7.3772583 C-11.17578125 4.390625 -11.17578125 4.390625 -8.82495117 2.01196289 C-5.61764871 0.04903821 -3.73786702 -0.07365255 0 0 Z " fill="#509EF7" transform="translate(455.17578125,138.609375)"/>
<path d="M0 0 C0.90399666 -0.00384115 1.80799332 -0.00768229 2.73938382 -0.01163983 C4.22330839 -0.01034011 4.22330839 -0.01034011 5.73721123 -0.00901413 C6.79121333 -0.01198525 7.84521543 -0.01495637 8.93115699 -0.01801753 C12.4746605 -0.026712 16.01813026 -0.02821343 19.5616436 -0.02970505 C22.09770086 -0.03433274 24.63375741 -0.03935733 27.16981316 -0.04475021 C34.0687883 -0.05788205 40.96775232 -0.06435761 47.86673784 -0.06876087 C52.17652859 -0.07152483 56.4863171 -0.07576252 60.79610634 -0.08026505 C72.73389164 -0.09245797 84.67167516 -0.10275657 96.60946655 -0.10614014 C97.37342176 -0.1063597 98.13737697 -0.10657927 98.92448234 -0.10680549 C100.07312914 -0.10713291 100.07312914 -0.10713291 101.24498093 -0.10746694 C102.79666146 -0.1079104 104.34834198 -0.10835696 105.90002251 -0.10880661 C106.66970662 -0.10902804 107.43939074 -0.10924947 108.23239861 -0.10947761 C120.69611198 -0.11342322 133.1597668 -0.13086988 145.62345757 -0.15416613 C158.42667532 -0.17790332 171.22986372 -0.1903431 184.03310382 -0.19150805 C191.21878808 -0.1924236 198.40439608 -0.19814517 205.59005928 -0.21632767 C212.3517432 -0.2333772 219.11325797 -0.23496358 225.87496567 -0.22618866 C228.35411084 -0.22541827 230.83326379 -0.22976115 233.31238937 -0.23964691 C236.7026221 -0.25237076 240.09234308 -0.24648668 243.48257256 -0.23606491 C244.45847127 -0.24412132 245.43436999 -0.25217772 246.43984139 -0.26047826 C256.69476299 -0.18699504 265.6053142 2.42419653 273.49084282 9.13142776 C280.78364839 16.96562065 283.10494092 24.00509419 282.83459282 34.62752151 C281.81207079 45.05027452 276.36313332 51.38735543 269.11584282 58.44392776 C262.01546266 63.00845787 254.6819187 63.57103504 246.42887688 63.53256607 C245.34751247 63.53936274 244.26614806 63.54615941 243.15201503 63.55316204 C239.54570166 63.57208051 235.93972947 63.5697006 232.33337212 63.56721878 C229.74070615 63.57619957 227.1480442 63.58640855 224.5553875 63.59775162 C218.25396844 63.62259917 211.95263359 63.63091283 205.65116962 63.63258875 C200.52609365 63.63401753 195.40104531 63.64019815 190.27597809 63.64969063 C175.72548033 63.67608963 161.17504876 63.68995183 146.62452688 63.68769921 C145.84121436 63.68757934 145.05790185 63.68745947 144.25085258 63.68733597 C143.46657691 63.68721333 142.68230123 63.68709068 141.87425963 63.68696433 C129.16639968 63.68574518 116.45880648 63.71445296 103.75102367 63.75675107 C90.68319842 63.79990229 77.61550312 63.82055839 64.54760486 63.81796974 C57.21876708 63.81697595 49.89020906 63.82512329 42.5614357 63.85750389 C35.66739306 63.88777018 28.77394922 63.88675241 21.87987709 63.86495399 C19.35479875 63.86182246 16.82968337 63.86886969 14.30466843 63.88703537 C-11.82240804 64.0627759 -11.82240804 64.0627759 -21.70014095 55.15575886 C-23.56703331 53.26016175 -25.03545282 51.34403683 -26.50915718 49.13142776 C-26.94099312 48.48818558 -27.37282906 47.84494339 -27.81775093 47.18220901 C-32.05999689 39.47570683 -31.65209079 29.56750572 -29.88415718 21.15877151 C-26.97069823 12.74355749 -21.05256285 7.21707228 -13.25915718 3.19392776 C-8.778461 1.08914214 -4.95800209 0.00792487 0 0 Z M-22.32556343 15.22517776 C-25.65356117 20.58512132 -26.99168861 24.75444341 -26.88415718 31.06892776 C-26.89575874 31.74633011 -26.90736031 32.42373245 -26.91931343 33.12166214 C-26.87415096 40.9724058 -23.76928694 46.6311008 -18.60290718 52.26814651 C-10.28464517 59.67077894 -0.88253062 60.28064093 9.72974968 60.27859879 C10.75884262 60.28227547 11.78793556 60.28595216 12.84821314 60.28974026 C16.29558241 60.30075076 19.74292151 60.30461649 23.19030571 60.30842972 C25.6626781 60.31469636 28.13504955 60.32134334 30.60741997 60.32834244 C38.02514137 60.34754672 45.44285476 60.35816705 52.86059371 60.36707023 C56.35904777 60.37146019 59.85750033 60.37682513 63.35595322 60.3820591 C74.99442703 60.39906638 86.63289992 60.41355906 98.27138424 60.42080784 C101.28846615 60.42271753 104.30554805 60.4246379 107.32262993 60.42659378 C108.44736367 60.42731939 108.44736367 60.42731939 109.5948193 60.42805966 C121.73307271 60.43635455 133.87122741 60.46168453 146.00943775 60.49417446 C158.48841938 60.52730261 170.96735093 60.54526176 183.44637674 60.54845208 C190.44603856 60.55061178 197.44555638 60.55928104 204.44517517 60.58491325 C211.0337163 60.60898537 217.62204576 60.61240995 224.21063805 60.60215187 C226.62241476 60.60165744 229.03420439 60.60795044 231.44594193 60.62170792 C251.3617163 61.10877926 251.3617163 61.10877926 269.42834282 53.63142776 C275.43658747 47.63820373 278.81989955 39.93980144 279.17834282 31.50642776 C278.72952744 23.16843531 275.80249236 16.97862494 269.74084282 11.25642776 C262.55412872 5.03835774 254.7772181 3.53917402 245.54276848 3.61003494 C244.47365473 3.60238385 243.40454097 3.59473275 242.30302984 3.58684981 C238.73807124 3.5662927 235.1737631 3.57415405 231.60876274 3.58211136 C229.04565144 3.57341263 226.48254534 3.56304483 223.91944695 3.55113602 C217.69016449 3.52715696 211.46111988 3.52204753 205.23180028 3.52673654 C200.16535541 3.53030986 195.09896275 3.52678872 190.03252411 3.51828766 C189.31006355 3.51709728 188.58760299 3.5159069 187.84324968 3.51468045 C186.37531826 3.51225682 184.90738684 3.50982855 183.43945543 3.5073957 C169.68733449 3.48566608 155.93531175 3.48995929 142.18318532 3.50216539 C129.62081293 3.51249967 117.0587509 3.49000013 104.4964399 3.45196895 C91.57776593 3.41316072 78.6592386 3.39670926 65.74050599 3.40421546 C58.49551605 3.40803208 51.25079013 3.40313756 44.00584793 3.37478638 C37.19057923 3.34838518 30.37594005 3.35354793 23.56067276 3.37960815 C21.06462709 3.38433194 18.56853756 3.37889802 16.07254219 3.36236191 C-5.50315839 2.92603126 -5.50315839 2.92603126 -22.32556343 15.22517776 Z " fill="#3992F6" transform="translate(326.50915718078613,236.86857223510742)"/>
<path d="M0 0 C1.051875 0.01933594 2.10375 0.03867188 3.1875 0.05859375 C4.239375 0.05988281 5.29125 0.06117188 6.375 0.0625 C9.64576291 0.56674262 10.18220623 0.95581053 12.1875 3.49609375 C13.36328125 6.28222656 13.36328125 6.28222656 14.5 9.69921875 C14.71037903 10.32175537 14.92075806 10.94429199 15.13751221 11.58569336 C15.82897745 13.63652862 16.50829658 15.69116836 17.1875 17.74609375 C18.1575436 20.64324848 19.13328922 23.53846996 20.109375 26.43359375 C20.35894958 27.17651672 20.60852417 27.9194397 20.86566162 28.68487549 C22.63835117 33.93959844 24.49071831 39.16113195 26.390625 44.37109375 C26.64791382 45.07989685 26.90520264 45.78869995 27.17028809 46.51898193 C28.66970289 50.64829041 28.66970289 50.64829041 30.18945312 54.7701416 C30.89089531 56.65970994 31.57858497 58.55436634 32.265625 60.44921875 C32.66168945 61.52333008 33.05775391 62.59744141 33.46582031 63.70410156 C34.19146595 66.51143699 34.20766506 67.82759901 33.1875 70.49609375 C31.22983719 70.57691469 29.27123272 70.63520153 27.3125 70.68359375 C25.67667969 70.73580078 25.67667969 70.73580078 24.0078125 70.7890625 C23.07710937 70.69238281 22.14640625 70.59570312 21.1875 70.49609375 C18.7580484 66.85191635 19.02570425 64.78368103 19.1875 60.49609375 C18.5275 60.49609375 17.8675 60.49609375 17.1875 60.49609375 C16.8575 58.84609375 16.5275 57.19609375 16.1875 55.49609375 C7.2775 55.49609375 -1.6325 55.49609375 -10.8125 55.49609375 C-11.8025 59.12609375 -12.7925 62.75609375 -13.8125 66.49609375 C-14.4725 67.81609375 -15.1325 69.13609375 -15.8125 70.49609375 C-19.4425 70.49609375 -23.0725 70.49609375 -26.8125 70.49609375 C-26.8125 67.85609375 -26.8125 65.21609375 -26.8125 62.49609375 C-26.1525 62.49609375 -25.4925 62.49609375 -24.8125 62.49609375 C-24.9671875 61.10390625 -24.9671875 61.10390625 -25.125 59.68359375 C-25.16369305 54.94369546 -23.0731869 51.21491323 -21.00390625 47.046875 C-19.97138865 44.83627175 -19.29731917 42.87560854 -18.8125 40.49609375 C-18.1525 40.49609375 -17.4925 40.49609375 -16.8125 40.49609375 C-16.8125 38.84609375 -16.8125 37.19609375 -16.8125 35.49609375 C-16.1525 35.49609375 -15.4925 35.49609375 -14.8125 35.49609375 C-14.8125 33.84609375 -14.8125 32.19609375 -14.8125 30.49609375 C-14.1525 30.49609375 -13.4925 30.49609375 -12.8125 30.49609375 C-12.8125 28.51609375 -12.8125 26.53609375 -12.8125 24.49609375 C-12.1525 24.49609375 -11.4925 24.49609375 -10.8125 24.49609375 C-10.8125 22.51609375 -10.8125 20.53609375 -10.8125 18.49609375 C-10.1525 18.49609375 -9.4925 18.49609375 -8.8125 18.49609375 C-8.874375 17.48546875 -8.93625 16.47484375 -9 15.43359375 C-8.71866367 9.5255309 -6.58670648 1.16182184 0 0 Z " fill="#4F9DF7" transform="translate(664.8125,138.50390625)"/>
<path d="M0 0 C0.90105469 0.01804688 1.80210937 0.03609375 2.73046875 0.0546875 C3.41753906 0.07789063 4.10460937 0.10109375 4.8125 0.125 C4.81614563 0.72555206 4.81979126 1.32610413 4.82354736 1.94485474 C4.86542452 8.20711682 4.93480678 14.46864956 5.02001953 20.73046875 C5.04820929 23.06600645 5.0694337 25.4016392 5.08349609 27.73730469 C5.10495246 31.09880159 5.15161906 34.45915807 5.203125 37.8203125 C5.20435364 38.86115997 5.20558228 39.90200745 5.20684814 40.97439575 C5.35497598 48.34046459 6.55520652 51.86770652 11.8125 57.125 C14.50721291 57.37717118 17.05465124 57.49525884 19.75 57.5 C20.47896484 57.52449219 21.20792969 57.54898438 21.95898438 57.57421875 C24.36255793 57.63301672 24.36255793 57.63301672 27.8125 57.125 C30.71069455 54.22309783 31.19504708 52.0151961 31.24487305 47.98925781 C31.26466721 46.96850159 31.28446136 45.94774536 31.30485535 44.89605713 C31.31444023 43.25368073 31.31444023 43.25368073 31.32421875 41.578125 C31.34216995 40.4517865 31.36012115 39.325448 31.37861633 38.16497803 C31.43278795 34.56835674 31.46663788 30.97186869 31.5 27.375 C31.53316693 24.93617935 31.56765599 22.49737629 31.60351562 20.05859375 C31.68851845 14.08084864 31.75683945 8.10308643 31.8125 2.125 C32.4725 2.125 33.1325 2.125 33.8125 2.125 C33.8125 1.465 33.8125 0.805 33.8125 0.125 C35.45824566 0.09811849 37.10411413 0.07865877 38.75 0.0625 C40.12478516 0.04509766 40.12478516 0.04509766 41.52734375 0.02734375 C43.8125 0.125 43.8125 0.125 44.8125 1.125 C44.92662521 2.6727012 44.97207605 4.22553838 44.98950195 5.77734375 C45.00875481 7.26524414 45.00875481 7.26524414 45.02839661 8.78320312 C45.03578354 9.86537109 45.04317047 10.94753906 45.05078125 12.0625 C45.058853 13.17173828 45.06692474 14.28097656 45.07524109 15.42382812 C45.08910735 17.78107124 45.09981806 20.13833464 45.10766602 22.49560547 C45.12479512 26.08210191 45.1686495 29.66765668 45.21289062 33.25390625 C45.22302451 35.54426405 45.23153843 37.8346297 45.23828125 40.125 C45.25578934 41.19097412 45.27329742 42.25694824 45.29133606 43.35522461 C45.26787461 51.51221843 43.4327916 57.84381948 38.5625 64.4375 C32.68636303 70.18008841 26.17398328 72.04944637 18.125 72.4375 C9.74761619 72.33762061 2.68138461 68.99388461 -3.1875 63.125 C-8.26496573 56.05281558 -8.49553437 49.07924629 -8.48828125 40.671875 C-8.49256638 39.57530579 -8.4968515 38.47873657 -8.50126648 37.34893799 C-8.50699447 35.03927297 -8.50752136 32.72958991 -8.50317383 30.41992188 C-8.49999856 26.8733898 -8.52354557 23.32767996 -8.54882812 19.78125 C-8.55109961 17.53645939 -8.55180531 15.29166653 -8.55078125 13.046875 C-8.559991 11.98233093 -8.56920074 10.91778687 -8.57868958 9.82098389 C-8.57246078 8.8394635 -8.56623199 7.85794312 -8.55981445 6.84667969 C-8.56044388 5.98097351 -8.5610733 5.11526733 -8.5617218 4.22332764 C-8.43822861 3.53087952 -8.31473541 2.8384314 -8.1875 2.125 C-4.87379 -0.08414 -3.8428979 -0.09981553 0 0 Z " fill="#509DF7" transform="translate(386.1875,138.875)"/>
<path d="M0 0 C20.09655684 -0.78044881 20.09655684 -0.78044881 27 4 C27.63035156 4.43570313 28.26070313 4.87140625 28.91015625 5.3203125 C33.20387043 8.65682925 37.00918466 12.87779802 39 18 C38.625 20.2421875 38.625 20.2421875 38 22 C34.18480767 23.22086155 30.97757369 23.59663605 27 23 C24.73202632 21.13898982 22.83158293 19.14668691 20.89453125 16.9453125 C17.18043395 13.13166208 13.99918467 12.66823002 8.75 12.5625 C2.64983532 12.67888923 -1.66865562 13.54063559 -6 18 C-10.82451815 25.250884 -11.74052832 32.42655945 -11 41 C-9.36406789 47.78678122 -6.9066704 52.25153609 -1 56 C3.53817688 58.15109584 8.00500737 59.37562592 13 60 C13 59.34 13 58.68 13 58 C14.65 58 16.3 58 18 58 C18 57.34 18 56.68 18 56 C18.99 56 19.98 56 21 56 C21 55.34 21 54.68 21 54 C21.66 54 22.32 54 23 54 C23 53.34 23 52.68 23 52 C23.66 52 24.32 52 25 52 C25 51.34 25 50.68 25 50 C26.32 50 27.64 50 29 50 C29 49.34 29 48.68 29 48 C32.94727588 47.82057837 35.5980513 47.90649311 39 50 C38.20107258 56.68952659 33.87178566 60.66798605 29 65 C20.56203557 70.25263286 12.93218512 72.98903947 3 72 C-6.3400082 69.73300772 -14.6491109 65.18631068 -19.90234375 56.94140625 C-20.44568359 55.98041016 -20.44568359 55.98041016 -21 55 C-21.58974609 53.99259766 -21.58974609 53.99259766 -22.19140625 52.96484375 C-27.04597681 43.10346872 -26.39394018 30.24969935 -23 20 C-22.34 20 -21.68 20 -21 20 C-21 18.68 -21 17.36 -21 16 C-20.34 16 -19.68 16 -19 16 C-19 15.34 -19 14.68 -19 14 C-18.34 14 -17.68 14 -17 14 C-16.34 12.02 -15.68 10.04 -15 8 C-14.34 8 -13.68 8 -13 8 C-13 7.34 -13 6.68 -13 6 C-11.68 6 -10.36 6 -9 6 C-9 5.34 -9 4.68 -9 4 C-8.01 4 -7.02 4 -6 4 C-6 3.34 -6 2.68 -6 2 C-4.02 2 -2.04 2 0 2 C0 1.34 0 0.68 0 0 Z " fill="#529FF7" transform="translate(331,139)"/>
<path d="M0 0 C5.09031755 -0.04936158 10.18049643 -0.08570105 15.27099609 -0.10986328 C17.00344265 -0.11993376 18.73587216 -0.13359089 20.46826172 -0.15087891 C22.95544639 -0.17508162 25.44240675 -0.18647239 27.9296875 -0.1953125 C29.09538773 -0.21079636 29.09538773 -0.21079636 30.28463745 -0.22659302 C32.19125493 -0.22699271 34.09731036 -0.1223214 36 0 C38 2 38 2 38.23046875 4.34765625 C38.21628906 5.24355469 38.20210937 6.13945312 38.1875 7.0625 C38.18105469 7.96097656 38.17460938 8.85945312 38.16796875 9.78515625 C38 12 38 12 37 13 C35.00035018 13.08758003 32.9976389 13.10696576 30.99609375 13.09765625 C29.78115234 13.09443359 28.56621094 13.09121094 27.31445312 13.08789062 C26.03505859 13.07951172 24.75566406 13.07113281 23.4375 13.0625 C22.15423828 13.05798828 20.87097656 13.05347656 19.54882812 13.04882812 C16.3658658 13.03699555 13.18292726 13.01905944 10 13 C10 17.95 10 22.9 10 28 C13.14755608 28.78688902 15.58362787 29.17362433 18.765625 29.31640625 C20.09980469 29.37924805 20.09980469 29.37924805 21.4609375 29.44335938 C22.38132812 29.48267578 23.30171875 29.52199219 24.25 29.5625 C25.65378906 29.62727539 25.65378906 29.62727539 27.0859375 29.69335938 C29.39046222 29.79917939 31.69521239 29.90006917 34 30 C34 33.63 34 37.26 34 41 C25.75 41 17.5 41 9 41 C9 46.28 9 51.56 9 57 C12.01447266 57.09087891 12.01447266 57.09087891 15.08984375 57.18359375 C17.02922669 57.24615449 18.96860873 57.30874857 20.90795898 57.37231445 C22.25914147 57.41571223 23.61038053 57.4573837 24.96166992 57.49731445 C26.90036701 57.55489952 28.83886276 57.61914298 30.77734375 57.68359375 C31.94515381 57.72025146 33.11296387 57.75690918 34.31616211 57.79467773 C37 58 37 58 38 59 C38.09823937 60.66429051 38.12973631 62.33281931 38.125 64 C38.12886719 65.36125 38.12886719 65.36125 38.1328125 66.75 C38 69 38 69 37 70 C34.0546443 70.10110353 31.1332244 70.13969279 28.1875 70.1328125 C26.86141724 70.13424759 26.86141724 70.13424759 25.50854492 70.13571167 C23.63557871 70.13639351 21.76261014 70.13453893 19.88964844 70.13037109 C17.01231612 70.12502289 14.13513992 70.13031593 11.2578125 70.13671875 C9.44270799 70.13605797 7.62760357 70.13477681 5.8125 70.1328125 C4.94584717 70.13483673 4.07919434 70.13686096 3.1862793 70.13894653 C-2.88504991 70.11495009 -2.88504991 70.11495009 -4 69 C-4.10444915 67.09371655 -4.13855112 65.18354506 -4.14526367 63.27441406 C-4.15164352 62.04934143 -4.15802338 60.8242688 -4.16459656 59.56207275 C-4.16612563 58.21325723 -4.16723938 56.86444119 -4.16796875 55.515625 C-4.1711807 54.13897669 -4.17454472 52.76232873 -4.17805481 51.38568115 C-4.18405426 48.49376637 -4.18589401 45.6018815 -4.18530273 42.70996094 C-4.18520138 39.00997216 -4.19882248 35.31017643 -4.21607494 31.61023331 C-4.22721589 28.76372402 -4.22922126 25.91726097 -4.22869301 23.07073212 C-4.22987116 21.70722542 -4.23428373 20.34371746 -4.24202538 18.98023224 C-4.25186146 17.06790145 -4.24767364 15.15551424 -4.24291992 13.24316406 C-4.24434494 12.15585999 -4.24576996 11.06855591 -4.24723816 9.94830322 C-3.99385791 6.92675586 -3.2761412 4.73391319 -2 2 C-1.34 2 -0.68 2 0 2 C0 1.34 0 0.68 0 0 Z " fill="#4E9CF7" transform="translate(758,139)"/>
<path d="M0 0 C5.39346988 -0.02464849 10.78690725 -0.04283531 16.18041992 -0.05493164 C18.01668875 -0.05997231 19.85295354 -0.06680477 21.68920898 -0.07543945 C24.32276401 -0.08751672 26.95626616 -0.09323081 29.58984375 -0.09765625 C30.41588608 -0.10281754 31.24192841 -0.10797882 32.09300232 -0.11329651 C34.06236368 -0.11349205 36.03161614 -0.06204152 38 0 C39 1 39 1 39.1328125 3.46875 C39.13023437 4.4690625 39.12765625 5.469375 39.125 6.5 C39.12886719 8.00046875 39.12886719 8.00046875 39.1328125 9.53125 C39 12 39 12 38 13 C35.92737924 13.08767112 33.85179706 13.10695873 31.77734375 13.09765625 C30.51728516 13.09443359 29.25722656 13.09121094 27.95898438 13.08789062 C26.61848891 13.07953403 25.27799412 13.07106907 23.9375 13.0625 C22.59310058 13.0574866 21.2486994 13.05292342 19.90429688 13.04882812 C16.60284567 13.03699497 13.3014174 13.01905886 10 13 C10 18.28 10 23.56 10 29 C22.87 29.495 22.87 29.495 36 30 C36 33.63 36 37.26 36 41 C27.42 41 18.84 41 10 41 C10 46.28 10 51.56 10 57 C13.01447266 56.98259766 13.01447266 56.98259766 16.08984375 56.96484375 C18.02921424 56.9578926 19.96858503 56.95097604 21.90795898 56.94506836 C23.25920386 56.94002943 24.61044326 56.93319823 25.96166992 56.92456055 C27.90020434 56.91247581 29.838778 56.90730172 31.77734375 56.90234375 C33.52905884 56.89448853 33.52905884 56.89448853 35.31616211 56.88647461 C38 57 38 57 39 58 C39.09851171 59.83115883 39.12972629 61.66619933 39.125 63.5 C39.12886719 65.00046875 39.12886719 65.00046875 39.1328125 66.53125 C39 69 39 69 38 70 C35.0546443 70.10110353 32.1332244 70.13969279 29.1875 70.1328125 C27.86141724 70.13424759 27.86141724 70.13424759 26.50854492 70.13571167 C24.63557871 70.13639351 22.76261014 70.13453893 20.88964844 70.13037109 C18.01231612 70.12502289 15.13513992 70.13031593 12.2578125 70.13671875 C10.44270799 70.13605797 8.62760357 70.13477681 6.8125 70.1328125 C5.94584717 70.13483673 5.07919434 70.13686096 4.1862793 70.13894653 C-1.88504991 70.11495009 -1.88504991 70.11495009 -3 69 C-3.06447087 66.91301101 -3.05684852 64.82377317 -3.02172852 62.73608398 C-3.01212097 62.08244873 -3.00251343 61.42881348 -2.99261475 60.75537109 C-2.95951918 58.58550598 -2.91922758 56.41583566 -2.87890625 54.24609375 C-2.85461542 52.74537349 -2.83077136 51.24464594 -2.80735779 49.74391174 C-2.74441352 45.78675045 -2.67537643 41.82971767 -2.60510254 37.87268066 C-2.53451223 33.83770621 -2.46963968 29.80264037 -2.40429688 25.76757812 C-2.27515132 17.84495093 -2.13957389 9.92245031 -2 2 C-1.34 2 -0.68 2 0 2 C0 1.34 0 0.68 0 0 Z " fill="#529EF7" transform="translate(508,139)"/>
<path d="M0 0 C1.12148437 -0.02835938 2.24296875 -0.05671875 3.3984375 -0.0859375 C7.36337164 0.48048166 8.85558184 1.51041283 11.625 4.375 C14.51571118 9.09278048 15.08035286 13.13357204 15.05859375 18.5546875 C15.0638356 19.32628204 15.06907745 20.09787659 15.07447815 20.89285278 C15.08087423 22.51823733 15.07959273 24.14366831 15.07104492 25.76904297 C15.06254752 28.23620406 15.09130598 30.70103662 15.12304688 33.16796875 C15.12465966 34.75520765 15.12407988 36.34245059 15.12109375 37.9296875 C15.13794472 39.02070267 15.13794472 39.02070267 15.15513611 40.13375854 C15.08178517 45.61322728 13.58831775 49.76016815 10.625 54.375 C7.72288751 57.01494687 4.42407652 58.27560351 0.50390625 58.4921875 C-3.74038757 58.12311847 -7.06192461 57.02546031 -10.375 54.375 C-14.00603035 49.81465437 -13.79801902 45.62694392 -13.73828125 40.05859375 C-13.73877975 39.16511734 -13.73927826 38.27164093 -13.73979187 37.35108948 C-13.73745716 35.46751677 -13.72776431 33.58394061 -13.71118164 31.70043945 C-13.68755239 28.81888942 -13.69062991 25.9382632 -13.69726562 23.05664062 C-13.69168961 21.22395282 -13.68458021 19.39126891 -13.67578125 17.55859375 C-13.67669266 16.69809921 -13.67760406 15.83760468 -13.67854309 14.95103455 C-13.66901108 14.1466243 -13.65947906 13.34221405 -13.6496582 12.51342773 C-13.64505081 11.80903061 -13.64044342 11.10463348 -13.63569641 10.37889099 C-13.33258302 8.04895406 -12.52326528 6.40945346 -11.375 4.375 C-10.715 4.375 -10.055 4.375 -9.375 4.375 C-9.375 3.715 -9.375 3.055 -9.375 2.375 C-5.85460293 0.02806862 -4.17442991 0.04776236 0 0 Z " fill="#519EF7" transform="translate(93.375,24.625)"/>
<path d="M0 0 C3.94548479 1.88631749 6.49557002 4.92263605 8 9 C8.20447642 11.86412395 8.30407814 14.6281952 8.30078125 17.4921875 C8.30506638 18.31574738 8.3093515 19.13930725 8.31376648 19.98782349 C8.31950125 21.72771283 8.32001632 23.46762615 8.31567383 25.20751953 C8.31251925 27.85881861 8.33596406 30.50899548 8.36132812 33.16015625 C8.36360187 34.85416527 8.36430427 36.54817727 8.36328125 38.2421875 C8.372491 39.02987518 8.38170074 39.81756287 8.39118958 40.62911987 C8.35070233 45.48739249 7.6519847 48.77727619 5 53 C1.36506991 56.45318359 -1.61704433 57.31702533 -6.5 57.5625 C-10.13793204 57.41896255 -12.63571692 57.09705398 -15.5625 54.875 C-20.05540433 49.57567694 -20.28704976 44.26201669 -20.1953125 37.5390625 C-20.1924826 36.74849457 -20.18965271 35.95792664 -20.18673706 35.1434021 C-20.17560955 32.63710916 -20.15051926 30.13118355 -20.125 27.625 C-20.11496058 25.91797394 -20.10583641 24.21094223 -20.09765625 22.50390625 C-20.07569463 18.3357976 -20.04121671 14.16796092 -20 10 C-19.34 10 -18.68 10 -18 10 C-18 8.68 -18 7.36 -18 6 C-17.34 6 -16.68 6 -16 6 C-15.8453125 5.071875 -15.8453125 5.071875 -15.6875 4.125 C-13.66497934 -2.1264275 -5.21443009 -0.68194 0 0 Z " fill="#4D9CF7" transform="translate(206,25)"/>
<path d="M0 0 C15.51 0 31.02 0 47 0 C47 3.96 47 7.92 47 12 C46 13 46 13 44.23413086 13.11352539 C43.48526611 13.10828857 42.73640137 13.10305176 41.96484375 13.09765625 C41.15595703 13.09443359 40.34707031 13.09121094 39.51367188 13.08789062 C38.66353516 13.07951172 37.81339844 13.07113281 36.9375 13.0625 C36.08349609 13.05798828 35.22949219 13.05347656 34.34960938 13.04882812 C32.23304337 13.03700373 30.11651315 13.01906769 28 13 C28.00222061 13.69935165 28.00444122 14.39870331 28.00672913 15.11924744 C28.0267328 21.69704921 28.04197452 28.27484254 28.05181217 34.85266781 C28.05703975 38.23471813 28.06413511 41.6167434 28.07543945 44.9987793 C28.08834267 48.88329777 28.09322924 52.76780597 28.09765625 56.65234375 C28.10281754 57.87211411 28.10797882 59.09188446 28.11329651 60.34861755 C28.11337204 61.46970413 28.11344757 62.59079071 28.11352539 63.74584961 C28.115746 64.73846298 28.11796661 65.73107635 28.12025452 66.75376892 C28 69 28 69 27 70 C23.04 70 19.08 70 15 70 C15 51.19 15 32.38 15 13 C9.06 13 3.12 13 -3 13 C-4 12 -4 12 -4.09765625 10.15234375 C-4.06510417 8.1015625 -4.03255208 6.05078125 -4 4 C-3.34 4 -2.68 4 -2 4 C-1.34 2.68 -0.68 1.36 0 0 Z " fill="#4E9CF7" transform="translate(698,139)"/>
<path d="M0 0 C3.18266362 2.74866404 4.48439052 4.3548287 5.75 8.375 C5.79647953 13.34056292 5.53455612 17.19816583 2.75 21.375 C-2.07445746 22.48782375 -7.61319559 23.28307077 -12.37109375 21.64453125 C-15.02380539 19.91795335 -16.49659927 18.0051011 -18.25 15.375 C-18.94920885 10.57810209 -18.96482085 6.60040718 -16.5 2.375 C-11.34556909 -2.20671637 -6.41534125 -3.20767063 0 0 Z " fill="#FAFCFD" transform="translate(261.25,205.625)"/>
<path d="M0 0 C2.866875 -0.103125 5.73375 -0.20625 8.6875 -0.3125 C10.02880981 -0.38078003 10.02880981 -0.38078003 11.3972168 -0.45043945 C15.64045791 -0.52419771 17.50695581 -0.35217442 21.0625 2.1875 C23.19887621 5.28869128 23.55909426 6.61358608 23.3125 10.3125 C23.24482422 11.63701172 23.24482422 11.63701172 23.17578125 12.98828125 C23.11777344 13.65214844 23.05976563 14.31601563 23 15 C22.34 15 21.68 15 21 15 C20.7525 15.61875 20.505 16.2375 20.25 16.875 C18.71892086 19.47783454 17.80052292 19.93019073 15 21 C12.08984375 21.23046875 12.08984375 21.23046875 8.9375 21.1875 C7.89464844 21.18105469 6.85179687 21.17460937 5.77734375 21.16796875 C3 21 3 21 0 20 C0 13.4 0 6.8 0 0 Z " fill="#FDFDFE" transform="translate(457,152)"/>
<path d="M0 0 C8 0 8 0 10.4375 1.875 C13.73366435 6.35778351 13.48154016 10.57852196 13 16 C10.84782609 21.57608696 10.84782609 21.57608696 8 23 C5.36 23 2.72 23 0 23 C0 15.41 0 7.82 0 0 Z " fill="#F6FAFE" transform="translate(332,255)"/>
<path d="M0 0 C5.33421337 8.00132006 7.73321631 17.56529762 9 27 C2.83056966 28.71754742 -2.18814978 28.5572141 -8 26 C-7.0432117 22.79120387 -6.08429132 19.58304864 -5.125 16.375 C-4.85558594 15.47136719 -4.58617187 14.56773437 -4.30859375 13.63671875 C-2.9407195 9.066017 -1.54495892 4.51487996 0 0 Z " fill="#F8FAFC" transform="translate(667,155)"/>
<path d="M0 0 C1.98 0 3.96 0 6 0 C6 7.92 6 15.84 6 24 C6.66 24.33 7.32 24.66 8 25 C6.63875 24.9690625 6.63875 24.9690625 5.25 24.9375 C2.13467128 24.80853289 2.13467128 24.80853289 -0.0625 25.8125 C-2 26 -2 26 -4.75 24.0625 C-7.8155494 19.88994664 -7.64664153 18.09230207 -7 13 C-5.5 10.5 -5.5 10.5 -4 9 C-1.69 9.33 0.62 9.66 3 10 C3 7.03 3 4.06 3 1 C2.01 0.67 1.02 0.34 0 0 Z " fill="#4A9BF7" transform="translate(478,254)"/>
<path d="M0 0 C11.88 0 23.76 0 36 0 C36.495 0.99 36.495 0.99 37 2 C35.95545654 1.99476318 34.91091309 1.98952637 33.8347168 1.98413086 C29.96021379 1.96603402 26.08571452 1.95455082 22.21118164 1.94506836 C20.53409192 1.94003887 18.85700658 1.93321452 17.17993164 1.92456055 C14.769683 1.91243441 12.35949232 1.90675785 9.94921875 1.90234375 C9.19912033 1.89718246 8.44902191 1.89202118 7.67619324 1.88670349 C4.51048768 1.88636215 2.02662028 1.99112657 -1 3 C-0.99777939 3.65954681 -0.99555878 4.31909363 -0.99327087 4.99862671 C-0.97120106 11.84380554 -0.95608627 18.68897432 -0.94506836 25.53417969 C-0.94002983 28.09115001 -0.93319893 30.64811743 -0.92456055 33.20507812 C-0.91247398 36.87370517 -0.90676699 40.54229423 -0.90234375 44.2109375 C-0.89718246 45.35992523 -0.89202118 46.50891296 -0.88670349 47.69271851 C-0.88662796 48.7536673 -0.88655243 49.81461609 -0.88647461 50.90771484 C-0.884254 51.84481293 -0.88203339 52.78191101 -0.87974548 53.74740601 C-1 56 -1 56 -2 58 C-2.2275015 59.87056791 -2.40962811 61.74685958 -2.5625 63.625 C-2.64628906 64.62789063 -2.73007812 65.63078125 -2.81640625 66.6640625 C-2.87699219 67.43492187 -2.93757812 68.20578125 -3 69 C-3.33 69 -3.66 69 -4 69 C-4.04639056 61.00257242 -4.08190327 53.00520129 -4.10362434 45.00767231 C-4.11405065 41.2938848 -4.12818869 37.58018952 -4.15087891 33.86645508 C-4.17264856 30.28085107 -4.1845773 26.69533565 -4.18975449 23.10967064 C-4.19344285 21.74336541 -4.20064534 20.3770649 -4.21146011 19.0107975 C-4.22602896 17.09359105 -4.22681738 15.176295 -4.22705078 13.2590332 C-4.231492 12.16871292 -4.23593323 11.07839264 -4.24050903 9.95503235 C-3.99402132 6.92654253 -3.28025509 4.73867898 -2 2 C-1.34 2 -0.68 2 0 2 C0 1.34 0 0.68 0 0 Z " fill="#7BB5F9" transform="translate(758,139)"/>
<path d="M0 0 C1.65 0 3.3 0 5 0 C5.33 3.3 5.66 6.6 6 10 C6.33 9.67 6.66 9.34 7 9 C11.39098837 8.5377907 11.39098837 8.5377907 13.63671875 10.2421875 C15.77667969 13.00144945 15.4648796 15.38772381 15.37109375 18.76953125 C14.83627033 21.98410146 13.30032507 23.77156009 11 26 C8.23723823 25.47731534 5.6739124 24.89130413 3 24 C3 16.41 3 8.82 3 1 C2.01 0.67 1.02 0.34 0 0 Z " fill="#4E9DF7" transform="translate(403,254)"/>
<path d="M0 0 C2.56225681 3.84338521 2.26647551 6.96619106 2.22705078 11.41870117 C2.22734283 12.27745346 2.22763489 13.13620575 2.22793579 14.02098083 C2.22654155 16.86174597 2.2109759 19.70224939 2.1953125 22.54296875 C2.19158271 24.51166134 2.18873558 26.48035579 2.18673706 28.4490509 C2.17909796 33.63256956 2.15944707 38.81597628 2.1373291 43.99945068 C2.11687665 49.28802984 2.10773663 54.57662707 2.09765625 59.86523438 C2.07620147 70.24353879 2.04206215 80.62176009 2 91 C-3.28 90.67 -8.56 90.34 -14 90 C-14 89.67 -14 89.34 -14 89 C-9.38 89 -4.76 89 0 89 C0 59.63 0 30.26 0 0 Z " fill="#459AF8" transform="translate(263,83)"/>
<path d="M0 0 C2.97994997 2.38395998 3.01653701 4.13022894 3.5 7.9375 C3.36550808 11.35743733 2.93524573 12.09065598 0.8125 15.0625 C-2 17 -2 17 -4.625 17.0625 C-7.60344654 15.73003708 -8.56321176 14.94919691 -10 12 C-10.68715135 7.91899134 -10.65921564 5.01417791 -8.375 1.5 C-5.29690766 -0.44405832 -3.57597151 -0.608676 0 0 Z " fill="#4C9CF7" transform="translate(432,263)"/>
<path d="M0 0 C2.56314499 -0.08132187 5.12368418 -0.14064175 7.6875 -0.1875 C8.40873047 -0.21263672 9.12996094 -0.23777344 9.87304688 -0.26367188 C14.47087504 -0.32665582 17.37027945 0.12195666 21 3 C23.8916543 7.38733756 24.63975578 10.79056007 24 16 C22.73000178 19.21732882 21.22628764 22.10091892 18.375 24.19140625 C14.86550263 25.38625157 11.40908785 25.20904265 7.75 25.125 C7.00492187 25.11597656 6.25984375 25.10695313 5.4921875 25.09765625 C3.66131941 25.07418358 1.83061762 25.03831525 0 25 C1.32 24.67 2.64 24.34 4 24 C3.91939409 20.37407004 3.80653183 16.74985598 3.6875 13.125 C3.66494141 12.09246094 3.64238281 11.05992187 3.61914062 9.99609375 C3.58369141 9.00996094 3.54824219 8.02382813 3.51171875 7.0078125 C3.48553467 6.09660645 3.45935059 5.18540039 3.43237305 4.24658203 C3.28968994 3.50520996 3.14700684 2.76383789 3 2 C2.01 1.34 1.02 0.68 0 0 Z M7 1 C7 8.59 7 16.18 7 24 C14.4363045 24.79560369 14.4363045 24.79560369 17.4375 22.1875 C20.74126221 17.56223291 20.50612663 12.47140341 20 7 C18.30596911 3.21634468 18.30596911 3.21634468 15 1 C12.36 1 9.72 1 7 1 Z " fill="#4397F6" transform="translate(325,254)"/>
<path d="M0 0 C3.125 0.25 3.125 0.25 4.77734375 1.41015625 C6.61184902 3.91465474 6.63159002 5.86203026 6.8125 8.9375 C6.91111328 10.42830078 6.91111328 10.42830078 7.01171875 11.94921875 C7.04910156 12.70847656 7.08648437 13.46773438 7.125 14.25 C7.785 13.26 8.445 12.27 9.125 11.25 C8.795 12.9 8.465 14.55 8.125 16.25 C7.155625 16.064375 6.18625 15.87875 5.1875 15.6875 C4.176875 15.543125 3.16625 15.39875 2.125 15.25 C1.795 15.58 1.465 15.91 1.125 16.25 C-1.875 16.375 -1.875 16.375 -4.875 16.25 C-5.875 15.25 -5.875 15.25 -5.9375 12.6875 C-5.916875 11.883125 -5.89625 11.07875 -5.875 10.25 C-4.555 9.59 -3.235 8.93 -1.875 8.25 C-1.875 7.59 -1.875 6.93 -1.875 6.25 C-2.865 5.92 -3.855 5.59 -4.875 5.25 C-3.76341202 0.32725322 -3.76341202 0.32725322 0 0 Z " fill="#55A1F7" transform="translate(444.875,262.75)"/>
<path d="M0 0 C4.29 0 8.58 0 13 0 C13 0.33 13 0.66 13 1 C11.02 1 9.04 1 7 1 C7 4.63 7 8.26 7 12 C12.01535052 11.67039784 12.01535052 11.67039784 16 9 C16.38286803 5.26703674 16.14915785 4.22373677 14 1 C18.875 1.875 18.875 1.875 20 3 C20.57623479 9.22333572 20.57623479 9.22333572 18.5625 11.9375 C14.654088 13.55806107 11.21186848 13.18581773 7 13 C7 16.63 7 20.26 7 24 C8.32 24.33 9.64 24.66 11 25 C7.37 25 3.74 25 0 25 C1.32 24.67 2.64 24.34 4 24 C3.91939409 20.37407004 3.80653183 16.74985598 3.6875 13.125 C3.66494141 12.09246094 3.64238281 11.05992187 3.61914062 9.99609375 C3.58369141 9.00996094 3.54824219 8.02382813 3.51171875 7.0078125 C3.48553467 6.09660645 3.45935059 5.18540039 3.43237305 4.24658203 C3.28968994 3.50520996 3.14700684 2.76383789 3 2 C2.01 1.34 1.02 0.68 0 0 Z " fill="#328EF6" transform="translate(499,254)"/>
<path d="M0 0 C3.5625 0.1875 3.5625 0.1875 5.5625 2.1875 C5.7578125 5.2265625 5.7578125 5.2265625 5.6875 8.8125 C5.66945313 10.00101562 5.65140625 11.18953125 5.6328125 12.4140625 C5.60960937 13.32929688 5.58640625 14.24453125 5.5625 15.1875 C6.2225 15.5175 6.8825 15.8475 7.5625 16.1875 C6.758125 16.001875 5.95375 15.81625 5.125 15.625 C4.279375 15.480625 3.43375 15.33625 2.5625 15.1875 C2.2325 15.5175 1.9025 15.8475 1.5625 16.1875 C-1.375 16.375 -1.375 16.375 -4.4375 16.1875 C-5.0975 15.5275 -5.7575 14.8675 -6.4375 14.1875 C-6.25 11.6875 -6.25 11.6875 -5.4375 9.1875 C-2.20958445 7.0355563 -1.15349191 6.98663557 2.5625 7.1875 C2.2325 5.5375 1.9025 3.8875 1.5625 2.1875 C0.2425 2.5175 -1.0775 2.8475 -2.4375 3.1875 C-2.4375 4.1775 -2.4375 5.1675 -2.4375 6.1875 C-3.4275 5.8575 -4.4175 5.5275 -5.4375 5.1875 C-4.31932898 0.23559976 -4.31932898 0.23559976 0 0 Z " fill="#62A9F8" transform="translate(527.4375,262.8125)"/>
<path d="M0 0 C3.5625 0.1875 3.5625 0.1875 5.5625 2.1875 C5.7578125 5.2265625 5.7578125 5.2265625 5.6875 8.8125 C5.66945313 10.00101562 5.65140625 11.18953125 5.6328125 12.4140625 C5.60960937 13.32929688 5.58640625 14.24453125 5.5625 15.1875 C6.2225 15.5175 6.8825 15.8475 7.5625 16.1875 C6.758125 16.001875 5.95375 15.81625 5.125 15.625 C4.279375 15.480625 3.43375 15.33625 2.5625 15.1875 C2.2325 15.5175 1.9025 15.8475 1.5625 16.1875 C-1.375 16.375 -1.375 16.375 -4.4375 16.1875 C-5.0975 15.5275 -5.7575 14.8675 -6.4375 14.1875 C-6.25 11.6875 -6.25 11.6875 -5.4375 9.1875 C-2.20958445 7.0355563 -1.15349191 6.98663557 2.5625 7.1875 C2.2325 5.5375 1.9025 3.8875 1.5625 2.1875 C0.2425 2.5175 -1.0775 2.8475 -2.4375 3.1875 C-2.4375 4.1775 -2.4375 5.1675 -2.4375 6.1875 C-3.4275 5.8575 -4.4175 5.5275 -5.4375 5.1875 C-4.31932898 0.23559976 -4.31932898 0.23559976 0 0 Z " fill="#62A9F8" transform="translate(358.4375,262.8125)"/>
<path d="M0 0 C3 0.5 3 0.5 4.875 2.25 C6 4.5 6 4.5 6 8.5 C3.03 8.5 0.06 8.5 -3 8.5 C-2.67 10.48 -2.34 12.46 -2 14.5 C0.37374861 14.83425735 0.37374861 14.83425735 3 14.5 C4.84315671 12.5995533 4.84315671 12.5995533 6 10.5 C5.125 15.375 5.125 15.375 4 16.5 C-2.35277277 16.97057576 -2.35277277 16.97057576 -4.703125 15.26171875 C-7.08217635 12.02993514 -6.49801939 8.33198252 -6 4.5 C-4.47241655 1.02050436 -3.75607456 0.62601243 0 0 Z " fill="#52A0F7" transform="translate(564,262.5)"/>
<path d="M0 0 C1.08667969 0.01804687 2.17335937 0.03609375 3.29296875 0.0546875 C4.54013672 0.08949219 4.54013672 0.08949219 5.8125 0.125 C5.8125 0.455 5.8125 0.785 5.8125 1.125 C5.05324219 1.17398437 4.29398438 1.22296875 3.51171875 1.2734375 C2.02091797 1.38558594 2.02091797 1.38558594 0.5 1.5 C-0.97919922 1.60441406 -0.97919922 1.60441406 -2.48828125 1.7109375 C-5.40278433 1.96365472 -5.40278433 1.96365472 -8.1875 4.125 C-8.5175 5.115 -8.8475 6.105 -9.1875 7.125 C-9.8475 7.125 -10.5075 7.125 -11.1875 7.125 C-11.21233298 12.26619114 -11.23042277 17.40734687 -11.24243164 22.54858398 C-11.24744129 24.29533497 -11.25425085 26.0420818 -11.26293945 27.78881836 C-11.27515319 30.30844146 -11.28076213 32.82800881 -11.28515625 35.34765625 C-11.29031754 36.12085709 -11.29547882 36.89405792 -11.30079651 37.69068909 C-11.3012642 42.27427328 -10.94426121 46.60276262 -10.1875 51.125 C-11.1775 51.62 -11.1775 51.62 -12.1875 52.125 C-14.13674707 47.24850992 -14.45353667 42.84707456 -14.3828125 37.6640625 C-14.3799826 36.87349457 -14.37715271 36.08292664 -14.37423706 35.2684021 C-14.36310955 32.76210916 -14.33801926 30.25618355 -14.3125 27.75 C-14.30246058 26.04297394 -14.29333641 24.33594223 -14.28515625 22.62890625 C-14.26319463 18.4607976 -14.22871671 14.29296092 -14.1875 10.125 C-13.5275 10.125 -12.8675 10.125 -12.1875 10.125 C-12.1875 8.805 -12.1875 7.485 -12.1875 6.125 C-11.5275 6.125 -10.8675 6.125 -10.1875 6.125 C-10.0328125 5.196875 -10.0328125 5.196875 -9.875 4.25 C-8.30262004 -0.61008352 -4.32809455 -0.0930773 0 0 Z " fill="#7DB7F9" transform="translate(200.1875,24.875)"/>
<path d="M0 0 C4.33333333 0 8.66666667 0 13 0 C14.44207941 2.88415883 14.09394887 5.41721528 14.0625 8.625 C14.05347656 9.81351562 14.04445313 11.00203125 14.03515625 12.2265625 C14.02355469 13.14179688 14.01195312 14.05703125 14 15 C14.66 15.33 15.32 15.66 16 16 C14.02 16 12.04 16 10 16 C10.66 15.67 11.32 15.34 12 15 C11.67 10.71 11.34 6.42 11 2 C7.25724788 2.57125354 7.25724788 2.57125354 6 4 C5.76636119 5.84891946 5.58696365 7.70488031 5.4375 9.5625 C5.35371094 10.57441406 5.26992188 11.58632813 5.18359375 12.62890625 C5.12300781 13.41136719 5.06242188 14.19382812 5 15 C5.66 15.33 6.32 15.66 7 16 C4.69 16 2.38 16 0 16 C0.66 15.67 1.32 15.34 2 15 C2 10.38 2 5.76 2 1 C1.34 0.67 0.68 0.34 0 0 Z " fill="#4398F7" transform="translate(538,263)"/>
<path d="M0 0 C2.625 0.375 2.625 0.375 5 1 C5.02686553 2.97909398 5.04633375 4.95828971 5.0625 6.9375 C5.07410156 8.03964844 5.08570313 9.14179688 5.09765625 10.27734375 C5 13 5 13 4 14 C2.33382885 14.04063832 0.66611905 14.042721 -1 14 C-2.23887548 11.52224905 -2.16741669 9.76346293 -2.1875 7 C-2.20167969 6.113125 -2.21585937 5.22625 -2.23046875 4.3125 C-2 2 -2 2 0 0 Z " fill="#F9FBFE" transform="translate(427,264)"/>
<path d="M0 0 C15.51 0 31.02 0 47 0 C46.67 0.66 46.34 1.32 46 2 C40.84802133 3.32192283 35.71355184 3.04339895 30.4453125 2.87890625 C29.54376434 2.85529526 28.64221619 2.83168427 27.71334839 2.80735779 C24.85038837 2.73114276 21.98772811 2.64693845 19.125 2.5625 C17.17709771 2.50923705 15.22918106 2.45649698 13.28125 2.40429688 C8.52064562 2.27558506 3.76029378 2.13971047 -1 2 C-0.67 1.34 -0.34 0.68 0 0 Z " fill="#8CBFFA" transform="translate(698,139)"/>
<path d="M0 0 C1.32 0.33 2.64 0.66 4 1 C3.35039307 1.52779053 2.70078613 2.05558105 2.03149414 2.59936523 C-0.59207959 5.69966574 -0.49733021 7.38933642 -0.50390625 11.41015625 C-0.52259766 12.64701172 -0.54128906 13.88386719 -0.56054688 15.15820312 C-0.56119141 16.44662109 -0.56183594 17.73503906 -0.5625 19.0625 C-0.57141484 21.6159658 -0.59294529 24.16942812 -0.62890625 26.72265625 C-0.62963135 27.85453369 -0.63035645 28.98641113 -0.63110352 30.15258789 C-1 33 -1 33 -2.11499023 34.8762207 C-4.94164736 36.56137842 -7.26329379 36.31894166 -10.53125 36.2578125 C-11.81644531 36.24363281 -13.10164063 36.22945312 -14.42578125 36.21484375 C-15.78387191 36.18571141 -17.14194511 36.15575452 -18.5 36.125 C-21.15622282 36.07877729 -23.81232414 36.04244995 -26.46875 36.0078125 C-27.64888672 35.98348145 -28.82902344 35.95915039 -30.04492188 35.93408203 C-33.05956009 35.85596869 -33.05956009 35.85596869 -36 37 C-35.67 36.01 -35.34 35.02 -35 34 C-34.06615479 33.97494385 -33.13230957 33.9498877 -32.17016602 33.92407227 C-28.71674811 33.82913072 -25.2635104 33.72988742 -21.81030273 33.62768555 C-20.31360731 33.58428187 -18.81686061 33.54261087 -17.32006836 33.50268555 C-15.17285688 33.44511384 -13.02590479 33.38138284 -10.87890625 33.31640625 C-8.93866577 33.26141968 -8.93866577 33.26141968 -6.95922852 33.20532227 C-4.11444992 33.3332722 -4.11444992 33.3332722 -3 32 C-2.84126045 29.78312006 -2.74866163 27.56144702 -2.68359375 25.33984375 C-2.66281265 24.67537735 -2.64203156 24.01091095 -2.62062073 23.3263092 C-2.55506342 21.19681457 -2.49621215 19.06719332 -2.4375 16.9375 C-2.39432061 15.49673153 -2.35070651 14.05597601 -2.30664062 12.61523438 C-2.19937607 9.0769596 -2.09812629 5.53854131 -2 2 C-1.34 2 -0.68 2 0 2 C0 1.34 0 0.68 0 0 Z " fill="#8ABEFA" transform="translate(130,133)"/>
<path d="M0 0 C2.4375 0.375 2.4375 0.375 5 1 C6.17673198 3.35346396 6.16623866 4.8806033 6.1875 7.5 C6.20167969 8.2940625 6.21585937 9.088125 6.23046875 9.90625 C6 12 6 12 4 14 C2.68 14 1.36 14 0 14 C-0.94238698 11.17283905 -1.13465647 9.36823877 -1.125 6.4375 C-1.12757813 5.65246094 -1.13015625 4.86742187 -1.1328125 4.05859375 C-1 2 -1 2 0 0 Z " fill="#F8FBFE" transform="translate(475,264)"/>
<path d="M0 0 C0 3.96 0 7.92 0 12 C-1.65 12.33 -3.3 12.66 -5 13 C-7.53310053 9.20034921 -7.60218032 6.45613438 -7 2 C-4.81251653 -1.60934772 -4.28545036 -1.07136259 0 0 Z " fill="#F7FAFE" transform="translate(415,265)"/>
<path d="M0 0 C1.98 0 3.96 0 6 0 C6.84388104 8.16617194 7.06162705 15.84997076 6 24 C6.66 24.33 7.32 24.66 8 25 C5.36 25 2.72 25 0 25 C0.99 24.67 1.98 24.34 3 24 C3 16.41 3 8.82 3 1 C2.01 0.67 1.02 0.34 0 0 Z " fill="#4D9DF7" transform="translate(384,254)"/>
<path d="M0 0 C0.99 0 1.98 0 3 0 C3 7.59 3 15.18 3 23 C5.64 23 8.28 23 11 23 C11 23.33 11 23.66 11 24 C6.05 24 1.1 24 -4 24 C-2.68 23.67 -1.36 23.34 0 23 C0 15.41 0 7.82 0 0 Z " fill="#2D8BF6" transform="translate(329,255)"/>
<path d="M0 0 C1.65 0 3.3 0 5 0 C5 7.92 5 15.84 5 24 C5.66 24.33 6.32 24.66 7 25 C4.69 25 2.38 25 0 25 C0.66 24.67 1.32 24.34 2 24 C2 16.41 2 8.82 2 1 C1.34 0.67 0.68 0.34 0 0 Z " fill="#499BF7" transform="translate(573,254)"/>
<path d="M0 0 C8.58 0 17.16 0 26 0 C26 0.66 26 1.32 26 2 C28.31 2 30.62 2 33 2 C33 2.33 33 2.66 33 3 C28.83334831 3.02926019 24.66672341 3.04688594 20.5 3.0625 C18.74042969 3.07506836 18.74042969 3.07506836 16.9453125 3.08789062 C10.86205118 3.10497844 5.01245856 2.94502752 -1 2 C-0.67 1.34 -0.34 0.68 0 0 Z " fill="#79B4F9" transform="translate(449,139)"/>
<path d="M0 0 C4 0 8 0 12 0 C12 1.65 12 3.3 12 5 C11.01 5 10.02 5 9 5 C8.67 4.01 8.34 3.02 8 2 C6.32889958 4.96178773 5.67317248 7.37071192 5.375 10.75 C5.30023438 11.54921875 5.22546875 12.3484375 5.1484375 13.171875 C5.09945313 13.77515625 5.05046875 14.3784375 5 15 C5.66 15.33 6.32 15.66 7 16 C4.69 16 2.38 16 0 16 C0.66 15.67 1.32 15.34 2 15 C2 10.38 2 5.76 2 1 C1.34 0.67 0.68 0.34 0 0 Z " fill="#4599F7" transform="translate(456,263)"/>
<path d="M0 0 C6.75 -0.125 6.75 -0.125 9 1 C8.67 2.32 8.34 3.64 8 5 C7.34 4.01 6.68 3.02 6 2 C3.43717258 1.27034634 3.43717258 1.27034634 1 1 C1 2.32 1 3.64 1 5 C2.6396875 5.4021875 2.6396875 5.4021875 4.3125 5.8125 C9.51047324 7.48642358 9.51047324 7.48642358 11 10 C10.57894737 14.42105263 10.57894737 14.42105263 9 16 C7.00041636 16.04080783 4.99954746 16.04254356 3 16 C3 15.67 3 15.34 3 15 C4.65 14.67 6.3 14.34 8 14 C8.33 13.01 8.66 12.02 9 11 C8.0925 10.731875 7.185 10.46375 6.25 10.1875 C3.28528037 9.10423706 1.3830246 8.01640543 -1 6 C-0.67 4.02 -0.34 2.04 0 0 Z " fill="#4E9EF7" transform="translate(371,263)"/>
<path d="M0 0 C4.07502794 -0.07420211 8.14979392 -0.1286257 12.2253418 -0.16479492 C13.61147919 -0.17987397 14.99756894 -0.2003405 16.38354492 -0.22631836 C18.37658146 -0.26273716 20.36996723 -0.27813018 22.36328125 -0.29296875 C23.56251221 -0.3086792 24.76174316 -0.32438965 25.99731445 -0.34057617 C29 0 29 0 32 3 C21.77 3 11.54 3 1 3 C0.67 2.01 0.34 1.02 0 0 Z " fill="#75B1F8" transform="translate(170,167)"/>
<path d="M0 0 C0.66 0 1.32 0 2 0 C2.02887236 3.81248426 2.04675492 7.6249407 2.0625 11.4375 C2.07087891 12.52611328 2.07925781 13.61472656 2.08789062 14.73632812 C2.09111328 15.77080078 2.09433594 16.80527344 2.09765625 17.87109375 C2.10289307 18.82943115 2.10812988 19.78776855 2.11352539 20.77514648 C2 23 2 23 1 24 C-1.67058851 24.14115161 -4.32432238 24.04247107 -7 24 C-7 23.34 -7 22.68 -7 22 C-4.69 22 -2.38 22 0 22 C0 14.74 0 7.48 0 0 Z " fill="#2E8CF7" transform="translate(455,185)"/>
<path d="M0 0 C3.3 0 6.6 0 10 0 C10.33 0.66 10.66 1.32 11 2 C10.34 2 9.68 2 9 2 C9 14.21 9 26.42 9 39 C8.67 39 8.34 39 8 39 C8 26.79 8 14.58 8 2 C5.36 2 2.72 2 0 2 C0 1.34 0 0.68 0 0 Z " fill="#57A0F5" transform="translate(420,139)"/>
<path d="M0 0 C2.375 -0.125 2.375 -0.125 5 0 C7 2 7 2 7.1953125 5.0390625 C7.17210937 6.22242188 7.14890625 7.40578125 7.125 8.625 C7.10695313 9.81351562 7.08890625 11.00203125 7.0703125 12.2265625 C7.04710937 13.14179688 7.02390625 14.05703125 7 15 C7.66 15.33 8.32 15.66 9 16 C6.69 16 4.38 16 2 16 C2.66 15.67 3.32 15.34 4 15 C4 10.38 4 5.76 4 1 C2.35 1.33 0.7 1.66 -1 2 C-0.67 1.34 -0.34 0.68 0 0 Z " fill="#4E9EF7" transform="translate(392,263)"/>
<path d="M0 0 C5.47697368 -0.36513158 5.47697368 -0.36513158 7.65625 1.15625 C9.48379354 3.66380974 9.50666252 5.61326277 9.6875 8.6875 C9.78611328 10.17830078 9.78611328 10.17830078 9.88671875 11.69921875 C9.92410156 12.45847656 9.96148437 13.21773438 10 14 C10.66 13.01 11.32 12.02 12 11 C11.67 12.65 11.34 14.3 11 16 C9.35 15.67 7.7 15.34 6 15 C5.67 10.71 5.34 6.42 5 2 C3.35 1.67 1.7 1.34 0 1 C0 0.67 0 0.34 0 0 Z " fill="#519FF7" transform="translate(442,263)"/>
<path d="M0 0 C1.65 0 3.3 0 5 0 C5.75282282 7.49348257 6.34229823 14.55634618 5 22 C4.34 22.66 3.68 23.32 3 24 C3 16.41 3 8.82 3 1 C2.01 0.67 1.02 0.34 0 0 Z " fill="#308DF6" transform="translate(403,254)"/>
<path d="M0 0 C4.875 0.875 4.875 0.875 6 2 C6.57623479 8.22333572 6.57623479 8.22333572 4.5625 10.9375 C0.74098146 12.52203208 -2.91862491 12.23546395 -7 12 C-7 11.67 -7 11.34 -7 11 C-5.329375 10.814375 -5.329375 10.814375 -3.625 10.625 C0.03103677 10.3534187 0.03103677 10.3534187 2 8 C2.38286803 4.26703674 2.14915785 3.22373677 0 0 Z " fill="#3E95F6" transform="translate(513,255)"/>
<path d="M0 0 C0.66 0 1.32 0 2 0 C2.125 2.875 2.125 2.875 2 6 C1.34 6.66 0.68 7.32 0 8 C-2.31 7.01 -4.62 6.02 -7 5 C-7 3.68 -7 2.36 -7 1 C-4.625 0.875 -4.625 0.875 -2 1 C-1.34 1.66 -0.68 2.32 0 3 C0 2.01 0 1.02 0 0 Z " fill="#ECF5FE" transform="translate(379,263)"/>
<path d="M0 0 C0 0.33 0 0.66 0 1 C-10.395 1.495 -10.395 1.495 -21 2 C-21 1.34 -21 0.68 -21 0 C-13.85956985 -2.92940724 -7.14043015 -2.92940724 0 0 Z " fill="#82BAFA" transform="translate(265,189)"/>
<path d="M0 0 C3 0.125 3 0.125 4 1.125 C4.04063832 2.79117115 4.042721 4.45888095 4 6.125 C1.69 5.795 -0.62 5.465 -3 5.125 C-3.5625 3.1875 -3.5625 3.1875 -4 1.125 C-3 0.125 -3 0.125 0 0 Z " fill="#C7E0FC" transform="translate(444,263.875)"/>
<path d="M0 0 C5.76059245 -0.4966028 10.46888346 0.41968099 16 2 C16 2.33 16 2.66 16 3 C10.06 3 4.12 3 -2 3 C-1.34 2.01 -0.68 1.02 0 0 Z " fill="#7FB7F9" transform="translate(227,55)"/>
<path d="M0 0 C0.66 0 1.32 0 2 0 C2 4.29 2 8.58 2 13 C2.66 13.33 3.32 13.66 4 14 C2.35 13.67 0.7 13.34 -1 13 C-1 9.98146205 -0.85049285 7.22918921 -0.5 4.25 C-0.4071875 3.45078125 -0.314375 2.6515625 -0.21875 1.828125 C-0.1465625 1.22484375 -0.074375 0.6215625 0 0 Z " fill="#479AF7" transform="translate(531,265)"/>
<path d="M0 0 C0.66 0 1.32 0 2 0 C2 4.29 2 8.58 2 13 C2.66 13.33 3.32 13.66 4 14 C2.35 13.67 0.7 13.34 -1 13 C-1 9.98146205 -0.85049285 7.22918921 -0.5 4.25 C-0.4071875 3.45078125 -0.314375 2.6515625 -0.21875 1.828125 C-0.1465625 1.22484375 -0.074375 0.6215625 0 0 Z " fill="#479AF7" transform="translate(362,265)"/>
<path d="M0 0 C-0.33 1.98 -0.66 3.96 -1 6 C-2.32 6.33 -3.64 6.66 -5 7 C-5.33 5.35 -5.66 3.7 -6 2 C-3 0 -3 0 0 0 Z " fill="#F5F9FE" transform="translate(530,271)"/>
<path d="M0 0 C-0.33 1.98 -0.66 3.96 -1 6 C-2.32 6.33 -3.64 6.66 -5 7 C-5.33 5.35 -5.66 3.7 -6 2 C-3 0 -3 0 0 0 Z " fill="#F5F9FE" transform="translate(361,271)"/>
<path d="M0 0 C1.32 0 2.64 0 4 0 C4.33 1.98 4.66 3.96 5 6 C3.02 6 1.04 6 -1 6 C-1.042721 4.33388095 -1.04063832 2.66617115 -1 1 C-0.67 0.67 -0.34 0.34 0 0 Z " fill="#F6FAFE" transform="translate(562,264)"/>
<path d="M0 0 C-0.25 2.375 -0.25 2.375 -1 5 C-3.0625 6.3125 -3.0625 6.3125 -5 7 C-5.33 5.35 -5.66 3.7 -6 2 C-3 0 -3 0 0 0 Z " fill="#FBFDFE" transform="translate(448,271)"/>
<path d="M0 0 C-1.32 0.33 -2.64 0.66 -4 1 C-4 1.66 -4 2.32 -4 3 C-8.29 3 -12.58 3 -17 3 C-11.25383268 0.12691634 -6.37269535 -0.12745391 0 0 Z " fill="#79B5F8" transform="translate(212,91)"/>
<path d="M0 0 C0.99 0.33 1.98 0.66 3 1 C2.67 2.65 2.34 4.3 2 6 C3.32 6 4.64 6 6 6 C6 6.66 6 7.32 6 8 C3.125 8.125 3.125 8.125 0 8 C-0.66 7.34 -1.32 6.68 -2 6 C-1.44444444 1.44444444 -1.44444444 1.44444444 0 0 Z " fill="#4699F7" transform="translate(523,271)"/>
<path d="M0 0 C0.99 0.33 1.98 0.66 3 1 C2.67 2.65 2.34 4.3 2 6 C3.32 6 4.64 6 6 6 C6 6.66 6 7.32 6 8 C3.125 8.125 3.125 8.125 0 8 C-0.66 7.34 -1.32 6.68 -2 6 C-1.44444444 1.44444444 -1.44444444 1.44444444 0 0 Z " fill="#4699F7" transform="translate(354,271)"/>
<path d="M0 0 C1.15294 4.61176 0.20941739 7.01875532 -1.4375 11.25 C-1.68048828 11.8996875 -1.92347656 12.549375 -2.17382812 13.21875 C-2.77285994 14.81616817 -3.38514321 16.40860594 -4 18 C-4.33 18 -4.66 18 -5 18 C-5 15.69 -5 13.38 -5 11 C-4.34 11 -3.68 11 -3 11 C-2.01 7.37 -1.02 3.74 0 0 Z " fill="#2B8AF7" transform="translate(665,157)"/>
<path d="M0 0 C0.66 0 1.32 0 2 0 C2.21755666 5.4389165 2.10428384 9.87080814 0 15 C-0.33 15 -0.66 15 -1 15 C-1.09038099 9.84828377 -0.84681133 5.08086796 0 0 Z " fill="#8CBFFA" transform="translate(117,66)"/>
<path d="M0 0 C-5.24749603 2.62374802 -8.08847633 3.09534716 -14 3 C-14 2.34 -14 1.68 -14 1 C-9.27685687 0.22887459 -4.78478822 -0.09764874 0 0 Z " fill="#75B3FA" transform="translate(106,91)"/>
<path d="M0 0 C4.51720311 -0.36625971 4.51720311 -0.36625971 6.8125 1.375 C8 3 8 3 8 5 C7.34 5 6.68 5 6 5 C6 6.98 6 8.96 6 11 C5.67 11 5.34 11 5 11 C4.67 8.03 4.34 5.06 4 2 C2.35 2.33 0.7 2.66 -1 3 C-0.67 2.01 -0.34 1.02 0 0 Z " fill="#5AA4F7" transform="translate(410,263)"/>
<path d="M0 0 C1.2065625 0.0309375 1.2065625 0.0309375 2.4375 0.0625 C2.4375 1.7125 2.4375 3.3625 2.4375 5.0625 C1.4475 5.0625 0.4575 5.0625 -0.5625 5.0625 C-0.8925 4.0725 -1.2225 3.0825 -1.5625 2.0625 C-2.5525 3.3825 -3.5425 4.7025 -4.5625 6.0625 C-3.48963568 0.08511307 -3.48963568 0.08511307 0 0 Z " fill="#67ABF8" transform="translate(465.5625,262.9375)"/>
<path d="M0 0 C5.75 4.75 5.75 4.75 8 7 C7.01 7.495 7.01 7.495 6 8 C5.01 7.34 4.02 6.68 3 6 C2.01 6.495 2.01 6.495 1 7 C0.34 5.02 -0.32 3.04 -1 1 C-0.67 0.67 -0.34 0.34 0 0 Z " fill="#5FA6F8" transform="translate(75,83)"/>
<path d="M0 0 C3.3 0 6.6 0 10 0 C10.33 0.66 10.66 1.32 11 2 C8.00468461 2.99843846 6.82744268 3.00732761 3.8125 2.5625 C2.554375 2.376875 1.29625 2.19125 0 2 C0 1.34 0 0.68 0 0 Z " fill="#70AEF9" transform="translate(420,139)"/>
<path d="M0 0 C0.66 0.33 1.32 0.66 2 1 C0.52307692 7.64615385 0.52307692 7.64615385 -2.125 9.4375 C-2.74375 9.623125 -3.3625 9.80875 -4 10 C-4 9.34 -4 8.68 -4 8 C-3.34 8 -2.68 8 -2 8 C-2 6.68 -2 5.36 -2 4 C-1.34 4 -0.68 4 0 4 C0 2.68 0 1.36 0 0 Z " fill="#8CBFF9" transform="translate(608,149)"/>
<path d="M0 0 C0.99 0.33 1.98 0.66 3 1 C3.33 2.98 3.66 4.96 4 7 C3.01 7 2.02 7 1 7 C0.67 4.69 0.34 2.38 0 0 Z " fill="#3D94F6" transform="translate(566,264)"/>
<path d="M0 0 C1.90401138 1.90401138 2.93520439 3.33425686 3.19921875 6.046875 C3.1886578 8.03233273 3.09915043 10.0169914 3 12 C2.67 12 2.34 12 2 12 C1.01 8.37 0.02 4.74 -1 1 C-0.67 0.67 -0.34 0.34 0 0 Z " fill="#73B1F8" transform="translate(672,164)"/>
<path d="M0 0 C0.66 0 1.32 0 2 0 C2 2.31 2 4.62 2 7 C1.01 7.33 0.02 7.66 -1 8 C-0.67 5.36 -0.34 2.72 0 0 Z " fill="#85BBF9" transform="translate(267,215)"/>
<path d="M0 0 C0.33 0 0.66 0 1 0 C1 2.64 1 5.28 1 8 C-0.32 7.67 -1.64 7.34 -3 7 C-2.01 4.69 -1.02 2.38 0 0 Z " fill="#F0F7F7" transform="translate(612,165)"/>
<path d="M0 0 C0.66 0.33 1.32 0.66 2 1 C1.38461538 7.52307692 1.38461538 7.52307692 -0.5625 9.9375 C-1.036875 10.288125 -1.51125 10.63875 -2 11 C-2 9.35 -2 7.7 -2 6 C-1.34 6 -0.68 6 0 6 C0 4.02 0 2.04 0 0 Z " fill="#8DBFFA" transform="translate(654,157)"/>
</svg>
